<svg width="236" height="151" viewBox="0 0 236 151" fill="none" xmlns="http://www.w3.org/2000/svg">
<path fill-rule="evenodd" clip-rule="evenodd" d="M0.0698242 75.5851C2.3407 79.4332 45.409 121.642 49.6375 123.281C56.8414 126.062 62.6362 121.49 63.6151 116.004C65.1031 107.852 50.8904 97.5664 41.8461 88.6901C37.8133 84.7281 32.0578 80.3093 29.787 75.547C34.5636 68.7664 48.0322 57.0708 54.7666 50.5566C58.0164 47.4328 64.7114 42.6709 64.4765 36.309C64.2416 29.8708 58.0945 25.2994 50.4989 27.3947C45.6439 28.7661 3.86767 70.0236 0.0698242 75.5851Z" fill="#F26651"/>
<path fill-rule="evenodd" clip-rule="evenodd" d="M206.096 75.5471C202.454 82.4427 188.673 93.6809 182.173 99.9665C178.689 103.319 171.602 107.814 172.111 114.785C172.62 121.528 179.158 126.252 186.519 123.281C189.534 122.062 232.837 79.4332 235.93 75.5089C232.289 69.376 190.708 28.8424 185.54 27.3567C178.023 25.1853 171.876 29.7948 171.484 36.3091C170.897 46.0996 194.389 60.7662 206.096 75.5471Z" fill="#F26651"/>
<g clip-path="url(#clip0)">
<path d="M164.915 112.41L153.07 94.72L148.801 88.3455C149.738 87.7681 150.548 87.0088 151.184 86.113C151.819 85.2171 152.268 84.2029 152.502 83.1308C152.736 82.0587 152.751 80.9507 152.546 79.8727C152.341 78.7947 151.921 77.7687 151.31 76.856L145.967 68.8791L139.941 59.8825L138.864 58.2739L135.669 53.4915C136.644 53.1285 137.524 52.5508 138.244 51.8015C138.963 51.0522 139.503 50.1506 139.823 49.1642C140.144 48.1778 140.236 47.132 140.094 46.1049C139.952 45.0779 139.578 44.0961 139.002 43.233L132.844 34.0353L124.379 21.3949C123.748 20.4533 122.894 19.6814 121.892 19.1475C120.89 18.6136 119.771 18.3342 118.635 18.3342C117.499 18.3342 116.38 18.6136 115.378 19.1475C114.376 19.6814 113.522 20.4533 112.891 21.3949L104.426 34.0353L98.2682 43.233C97.6916 44.0961 97.3183 45.0779 97.176 46.1049C97.0337 47.132 97.1263 48.1778 97.4467 49.1642C97.7671 50.1506 98.3072 51.0522 99.0264 51.8015C99.7457 52.5508 100.626 53.1285 101.601 53.4915L98.3918 58.2739L97.3147 59.8825L91.2926 68.8791L85.9502 76.8581C85.339 77.7708 84.9185 78.7967 84.7136 79.8747C84.5088 80.9527 84.5239 82.0608 84.758 83.1329C84.992 84.205 85.4403 85.2191 86.0761 86.115C86.7119 87.0109 87.5222 87.7701 88.4587 88.3475L84.181 94.718L72.3469 112.408C69.1588 117.172 71.9227 123.636 77.5905 124.632C91.1413 126.997 104.874 128.18 118.631 128.167V128.167C132.389 128.18 146.122 126.997 159.673 124.632C165.327 123.636 168.099 117.172 164.915 112.41Z" fill="#61A633"/>
<path d="M164.915 112.41L153.07 94.7202H153.058C141.685 96.6427 130.169 97.6036 118.633 97.5926V97.5926C107.097 97.6036 95.5811 96.6427 84.2078 94.7202H84.181L72.3469 112.408C69.1588 117.172 71.9227 123.637 77.5905 124.632C91.1413 126.997 104.874 128.18 118.631 128.167V128.167C132.389 128.18 146.122 126.997 159.673 124.632C165.327 123.637 168.099 117.172 164.915 112.41Z" fill="#61A633"/>
<path d="M135.669 53.4915C135.283 53.6357 134.885 53.7462 134.479 53.8218C131.859 54.3073 129.175 54.6719 126.426 54.9153C123.875 55.1396 121.279 55.2539 118.637 55.258C115.998 55.258 113.402 55.1437 110.848 54.9153C108.102 54.6732 105.418 54.3087 102.795 53.8218C102.389 53.7462 101.991 53.6357 101.605 53.4915L98.3918 58.2739C98.4618 58.2883 98.5298 58.3068 98.5978 58.3191C101.565 58.8662 104.599 59.2936 107.699 59.6014C111.269 59.9515 114.907 60.1293 118.614 60.1348C122.322 60.1348 125.96 59.957 129.53 59.6014C132.626 59.2977 135.66 58.8703 138.631 58.3191C138.701 58.3068 138.771 58.2883 138.837 58.2739L135.669 53.4915Z" fill="#5B9934"/>
<path d="M138.994 43.235L132.835 34.0373L124.371 21.3969C123.74 20.4553 122.886 19.6833 121.884 19.1494C120.882 18.6155 119.763 18.3362 118.627 18.3362C117.49 18.3362 116.372 18.6155 115.37 19.1494C114.368 19.6833 113.513 20.4553 112.883 21.3969L104.418 34.0373L98.26 43.235C97.6834 44.0981 97.31 45.0798 97.1678 46.1069C97.0255 47.1339 97.118 48.1797 97.4385 49.1661C97.7589 50.1526 98.2989 51.0541 99.0182 51.8034C99.7375 52.5527 100.617 53.1304 101.592 53.4934C101.979 53.6376 102.377 53.7481 102.783 53.8237C105.402 54.3093 108.087 54.6738 110.836 54.9173C113.387 55.1416 115.984 55.2578 118.629 55.2661C121.268 55.2661 123.864 55.1518 126.418 54.9234C129.164 54.6813 131.848 54.3168 134.471 53.8299C134.876 53.7543 135.275 53.6438 135.661 53.4996C136.637 53.1368 137.518 52.5589 138.238 51.8092C138.958 51.0594 139.498 50.1572 139.819 49.1699C140.139 48.1827 140.231 47.136 140.089 46.1083C139.946 45.0805 139.571 44.0983 138.994 43.235V43.235Z" fill="#61A633"/>
<path d="M148.797 88.3435C147.898 88.8933 146.902 89.2653 145.862 89.4391C136.864 90.9603 127.753 91.7208 118.627 91.7124V91.7124C109.5 91.7209 100.388 90.9605 91.3894 89.4391C90.3495 89.2653 89.353 88.8933 88.4546 88.3435L84.181 94.7181H84.1934C95.5666 96.6406 107.083 97.6015 118.619 97.5905V97.5905C130.154 97.6015 141.67 96.6406 153.044 94.7181H153.056L148.797 88.3435Z" fill="#5B9934"/>
<path d="M151.305 76.8581L145.967 68.8791L139.941 59.8824L138.864 58.2739C138.794 58.2883 138.726 58.3068 138.658 58.3191C135.691 58.8662 132.657 59.2936 129.557 59.6014C125.987 59.9515 122.348 60.1293 118.641 60.1348C114.934 60.1348 111.295 59.957 107.726 59.6014C104.629 59.2977 101.596 58.8703 98.6246 58.3191C98.5545 58.3068 98.4845 58.2883 98.4186 58.2739L97.3415 59.8824L91.2926 68.8791L85.9502 76.8581C85.188 77.9895 84.7227 79.2931 84.5968 80.6499C84.4709 82.0066 84.6884 83.3732 85.2295 84.6246C85.7705 85.876 86.6178 86.9724 87.6939 87.8134C88.77 88.6544 90.0405 89.2133 91.3894 89.439C100.387 90.9602 109.498 91.7207 118.625 91.7123V91.7123C127.751 91.7207 136.862 90.9602 145.86 89.439C147.21 89.2141 148.481 88.6556 149.558 87.8147C150.635 86.9737 151.483 85.8772 152.024 84.6254C152.566 83.3736 152.783 82.0065 152.658 80.6492C152.532 79.2919 152.066 77.9877 151.303 76.856L151.305 76.8581Z" fill="#61A633"/>
<path d="M118.629 125.177H99.3166L101.351 129.909C101.815 130.985 102.518 131.943 103.408 132.71C104.297 133.477 105.35 134.033 106.486 134.336C110.447 135.41 114.532 135.97 118.637 136.002V136.002C122.743 135.97 126.827 135.41 130.788 134.336C131.925 134.033 132.977 133.477 133.866 132.71C134.756 131.943 135.459 130.985 135.923 129.909L137.935 125.177H118.629Z" fill="#8E6942"/>
<path d="M99.3166 125.177L101.351 129.909C101.815 130.985 102.518 131.943 103.408 132.71C104.297 133.477 105.35 134.033 106.486 134.336C110.447 135.41 114.532 135.97 118.637 136.002V136.002V125.177H99.3166Z" fill="#997350"/>
<path d="M137.935 125.177H118.629V136C122.734 135.968 126.818 135.408 130.78 134.334C131.916 134.031 132.969 133.475 133.858 132.708C134.747 131.941 135.451 130.983 135.915 129.907L137.935 125.177Z" fill="#8E6942"/>
<path d="M164.915 112.41L153.07 94.7202H153.058C141.685 96.6427 130.169 97.6036 118.633 97.5926V97.5926V128.163C132.391 128.176 146.124 126.993 159.675 124.628C165.327 123.637 168.099 117.172 164.915 112.41Z" fill="#61A633"/>
<path d="M118.629 97.5945C107.093 97.6055 95.5769 96.6446 84.2037 94.7222H84.181L72.3469 112.408C69.1588 117.172 71.9227 123.637 77.5905 124.632C91.1413 126.997 104.874 128.18 118.631 128.167V128.167V97.5966L118.629 97.5945Z" fill="#62B532"/>
<path d="M110.84 54.9173C108.094 54.6752 105.409 54.3107 102.787 53.8237C102.381 53.7481 101.983 53.6376 101.596 53.4934L98.3918 58.2738C98.4618 58.2882 98.5298 58.3067 98.5978 58.319C101.565 58.8661 104.599 59.2935 107.699 59.6013C111.269 59.9514 114.907 60.1292 118.614 60.1347V55.2661C115.98 55.2661 113.388 55.1498 110.84 54.9173Z" fill="#60A434"/>
<path d="M135.669 53.4915C135.283 53.6357 134.885 53.7462 134.479 53.8218C131.859 54.3073 129.175 54.6719 126.426 54.9153C123.875 55.1396 121.279 55.2539 118.637 55.258V60.1328C122.344 60.1328 125.983 59.9549 129.553 59.5993C132.649 59.2957 135.682 58.8682 138.654 58.317C138.724 58.3047 138.794 58.2862 138.86 58.2719L135.669 53.4915Z" fill="#5B9934"/>
<path d="M138.994 43.2352L132.835 34.0375L124.371 21.3971C123.744 20.4525 122.89 19.6781 121.888 19.1438C120.886 18.6094 119.766 18.3318 118.629 18.336V55.2663C121.268 55.2663 123.864 55.1521 126.418 54.9237C129.164 54.6816 131.848 54.317 134.471 53.8301C134.876 53.7545 135.275 53.644 135.661 53.4998C136.637 53.137 137.518 52.5592 138.238 51.8094C138.958 51.0596 139.498 50.1574 139.819 49.1702C140.139 48.1829 140.231 47.1363 140.089 46.1085C139.946 45.0808 139.571 44.0985 138.994 43.2352V43.2352Z" fill="#61A633"/>
<path d="M112.885 21.3971L104.42 34.0375L98.2621 43.2352C97.6854 44.0983 97.3121 45.0801 97.1698 46.1071C97.0275 47.1342 97.1201 48.18 97.4405 49.1664C97.7609 50.1528 98.301 51.0543 99.0203 51.8037C99.7395 52.553 100.62 53.1307 101.594 53.4936C101.981 53.6379 102.379 53.7484 102.785 53.824C105.405 54.3095 108.089 54.674 110.838 54.9175C113.387 55.1418 115.984 55.2581 118.629 55.2663V18.336C117.492 18.3315 116.371 18.6089 115.368 19.1433C114.366 19.6777 113.512 20.4522 112.885 21.3971V21.3971Z" fill="#62B532"/>
<path d="M145.862 89.4392C136.864 90.9604 127.753 91.7208 118.627 91.7124V91.7124V97.5946C130.163 97.6056 141.679 96.6447 153.052 94.7222H153.064L148.795 88.3477C147.897 88.8957 146.901 89.2663 145.862 89.4392V89.4392Z" fill="#5B9934"/>
<path d="M118.629 97.5946V91.7124C109.501 91.721 100.389 90.9606 91.3894 89.4391C90.3495 89.2653 89.353 88.8933 88.4546 88.3435L84.181 94.7181H84.1934C95.5699 96.6425 107.089 97.6048 118.629 97.5946V97.5946Z" fill="#60A434"/>
<path d="M118.629 60.1329C114.922 60.1329 111.283 59.955 107.713 59.5994C104.617 59.2958 101.583 58.8683 98.6122 58.3171C98.5422 58.3048 98.4721 58.2863 98.4062 58.272L97.3291 59.8805L91.2926 68.8792L85.9502 76.8582C85.188 77.9896 84.7227 79.2933 84.5968 80.65C84.4709 82.0068 84.6884 83.3733 85.2295 84.6247C85.7705 85.8761 86.6178 86.9725 87.6939 87.8135C88.77 88.6545 90.0405 89.2134 91.3894 89.4391C100.387 90.9603 109.498 91.7208 118.625 91.7124V60.1329H118.629Z" fill="#62B532"/>
<path d="M151.305 76.8581L145.967 68.8791L139.941 59.8824L138.864 58.2739C138.794 58.2883 138.726 58.3068 138.658 58.3191C135.691 58.8662 132.657 59.2936 129.557 59.6014C125.987 59.9515 122.348 60.1293 118.641 60.1348V91.7123C127.768 91.7207 136.879 90.9602 145.876 89.439C147.226 89.2141 148.497 88.6556 149.574 87.8147C150.651 86.9737 151.499 85.8772 152.041 84.6254C152.582 83.3736 152.8 82.0065 152.674 80.6492C152.548 79.2919 152.082 77.9877 151.32 76.856L151.305 76.8581Z" fill="#61A633"/>
<path d="M132.014 14.688H123.961C123.645 14.6884 123.338 14.5894 123.082 14.4052C122.827 14.2209 122.636 13.9608 122.538 13.6621L120.05 6.02576C119.955 5.7248 119.766 5.46233 119.509 5.27747C119.253 5.09261 118.943 4.99526 118.627 4.99992V20.5086L133.435 15.7159C133.341 15.4149 133.152 15.1522 132.896 14.967C132.639 14.7817 132.33 14.6839 132.014 14.688Z" fill="#F4D553"/>
<path d="M133.435 15.7158L118.627 20.5086L127.777 33.0567C128.036 32.8746 128.229 32.614 128.327 32.3137C128.425 32.0134 128.423 31.6896 128.321 31.3907L125.835 23.7625C125.737 23.4632 125.737 23.1408 125.835 22.8415C125.933 22.5422 126.123 22.2814 126.379 22.0966L132.893 17.3777C133.151 17.1956 133.343 16.9356 133.44 16.6362C133.538 16.3368 133.536 16.014 133.435 15.7158V15.7158Z" fill="#FFE164"/>
<path d="M118.629 20.5085L109.478 33.0566C109.732 33.2458 110.041 33.348 110.358 33.348C110.675 33.348 110.983 33.2458 111.237 33.0566L117.751 28.3378C118.007 28.1526 118.315 28.0529 118.631 28.0529C118.947 28.0529 119.255 28.1526 119.51 28.3378L126.025 33.0566C126.278 33.2458 126.587 33.348 126.904 33.348C127.221 33.348 127.53 33.2458 127.783 33.0566L118.629 20.5085Z" fill="#F4D553"/>
<path d="M117.206 6.0257L114.718 13.658C114.62 13.9567 114.429 14.2168 114.173 14.401C113.918 14.5853 113.61 14.6843 113.295 14.6838H105.242C104.925 14.6791 104.616 14.7765 104.359 14.9614C104.103 15.1462 103.913 15.4087 103.819 15.7096L118.625 20.5024V4.99986C118.309 4.99609 118 5.09386 117.745 5.27866C117.489 5.46345 117.3 5.72543 117.206 6.0257V6.0257Z" fill="#FFE164"/>
<path d="M103.821 15.7158C103.719 16.0148 103.717 16.3386 103.815 16.6388C103.913 16.9391 104.106 17.1997 104.364 17.3818L110.879 22.1007C111.134 22.2855 111.325 22.5463 111.422 22.8456C111.52 23.1449 111.52 23.4673 111.423 23.7666L108.935 31.3948C108.833 31.6937 108.83 32.0175 108.928 32.3178C109.026 32.6181 109.219 32.8787 109.478 33.0608L118.629 20.5127L103.821 15.7158Z" fill="#F7CE21"/>
<path d="M151.305 73.7784C143.078 73.7784 135.01 71.9093 127.326 68.2204C121.234 65.2967 115.381 61.2303 109.917 56.136C100.668 47.5066 95.7762 38.9511 95.5723 38.59C95.2034 37.8818 95.1249 37.0586 95.3535 36.2939C95.5821 35.5292 96.0998 34.8829 96.7976 34.4912C97.4953 34.0995 98.3185 33.993 99.0935 34.1942C99.8685 34.3955 100.535 34.8887 100.952 35.5699V35.5699C100.997 35.652 105.668 43.7766 114.273 51.7782C119.265 56.4129 124.591 60.0978 130.102 62.7301C136.913 65.984 144.048 67.6315 151.305 67.6315C152.125 67.6315 152.91 67.9558 153.49 68.5329C154.069 69.1101 154.395 69.8929 154.395 70.7091C154.395 71.5253 154.069 72.3081 153.49 72.8852C152.91 73.4624 152.125 73.7866 151.305 73.7866V73.7784Z" fill="#FF5C5C"/>
<path d="M129.394 47.3693C131.287 47.3693 132.821 45.8408 132.821 43.9553C132.821 42.0698 131.287 40.5413 129.394 40.5413C127.501 40.5413 125.967 42.0698 125.967 43.9553C125.967 45.8408 127.501 47.3693 129.394 47.3693Z" fill="#F7FAF5"/>
<path d="M107.174 73.2511C109.066 73.2511 110.601 71.7226 110.601 69.8371C110.601 67.9516 109.066 66.4231 107.174 66.4231C105.281 66.4231 103.747 67.9516 103.747 69.8371C103.747 71.7226 105.281 73.2511 107.174 73.2511Z" fill="#F7FAF5"/>
<path d="M135.659 86.7123C137.552 86.7123 139.086 85.1838 139.086 83.2983C139.086 81.4128 137.552 79.8843 135.659 79.8843C133.766 79.8843 132.232 81.4128 132.232 83.2983C132.232 85.1838 133.766 86.7123 135.659 86.7123Z" fill="#F7FAF5"/>
<path d="M87.9932 112.077C89.8859 112.077 91.4203 110.549 91.4203 108.663C91.4203 106.778 89.8859 105.249 87.9932 105.249C86.1005 105.249 84.5662 106.778 84.5662 108.663C84.5662 110.549 86.1005 112.077 87.9932 112.077Z" fill="#F7FAF5"/>
<path d="M118.629 121.248C120.522 121.248 122.056 119.72 122.056 117.834C122.056 115.949 120.522 114.42 118.629 114.42C116.736 114.42 115.202 115.949 115.202 117.834C115.202 119.72 116.736 121.248 118.629 121.248Z" fill="#F7FAF5"/>
<path d="M149.264 117.832C151.157 117.832 152.691 116.304 152.691 114.418C152.691 112.533 151.157 111.004 149.264 111.004C147.372 111.004 145.837 112.533 145.837 114.418C145.837 116.304 147.372 117.832 149.264 117.832Z" fill="#F7FAF5"/>
<path d="M164.915 109.33C151.357 109.33 138.647 107.41 127.141 103.62C117.891 100.573 109.396 96.3223 101.891 90.9818C89.0127 81.819 83.5199 72.6459 83.2913 72.2602C82.8873 71.5575 82.7776 70.7244 82.986 69.9417C83.1944 69.1589 83.7041 68.4895 84.4046 68.0786C85.1051 67.6677 85.94 67.5485 86.7282 67.7467C87.5164 67.9449 88.1944 68.4446 88.6152 69.1375C88.6873 69.2565 93.8567 77.7751 105.759 86.1665C112.761 91.0905 120.674 95.0277 129.305 97.8467C140.124 101.38 152.107 103.181 164.915 103.181C165.734 103.181 166.52 103.505 167.099 104.082C167.679 104.66 168.004 105.442 168.004 106.259C168.004 107.075 167.679 107.858 167.099 108.435C166.52 109.012 165.734 109.336 164.915 109.336V109.33Z" fill="#FF5C5C"/>
</g>
<defs>
<clipPath id="clip0">
<rect width="97" height="131" fill="white" transform="translate(71 5)"/>
</clipPath>
</defs>
</svg>
